<?xml version="1.0" encoding="UTF-8"?>
<svg id="Layer_2" data-name="Layer 2" xmlns="http://www.w3.org/2000/svg" width="287.223971" height="191.523198" viewBox="0 0 287.223971 191.523198">
  <defs>
    <style>
      .cls-1 {
        fill: #fff;
        stroke-width: 0px;
      }
    </style>
  </defs>
  <g id="logo">
    <path class="cls-1" d="m56.195072,133.219028s35.408612-7.419452,36.022743-27.319114c.592659-19.20389-46.82606-39.954967-60.430802-46.234144L0,.060644c55.025234,22.79623,131.632214,60.393013,136.336933,101.104115,3.964214,28.169221-55.053628,33.069053-80.141862,32.054269Z"/>
    <path class="cls-1" d="m231.028899,133.158383s-35.408612-7.419452-36.022743-27.319114c-.592659-19.20389,46.82606-39.954967,60.430802-46.234144L287.223971,0c-55.025234,22.79623-131.632214,60.393013-136.336933,101.104115-3.964214,28.169221,55.053628,33.069053,80.141862,32.054269Z"/>
    <path class="cls-1" d="m143.854015,126.543569c-9.142492.005716-16.794521,7.817655-16.794521,18.016573,0,2.261365.394025,4.431342,1.102119,6.418614l15.692401,40.544442,15.692401-40.544442c.708095-1.987272,1.102119-4.15725,1.102119-6.418614,0-10.198918-7.652029-18.010857-16.794521-18.016573Z"/>
    <path class="cls-1" d="m143.854015,71.652992c9.142492-.005716,16.794521-7.817655,16.794521-18.016573,0-.022614-.000039-.045218-.000118-.067813-.010794-3.098082-.960224-6.12051-2.584426-8.758728l-14.209976-23.081503-14.209976,23.081503c-1.624202,2.638218-2.573632,5.660647-2.584426,8.758728-.000079.022595-.000118.0452-.000118.067813,0,10.198918,7.652029,18.010857,16.794521,18.016573Z"/>
  </g>
</svg>