<svg width="89" height="32" viewBox="0 0 89 32" fill="none" xmlns="http://www.w3.org/2000/svg">
<path d="M3.85044 5.64235H4.76912V3.14977C4.76912 2.2317 5.16341 1.37864 6.08209 1.05042V5.64314H8.15032V5.93807H6.08209V14.1713C6.08209 15.4176 6.9024 16.5656 8.24869 16.5656C9.00395 16.5656 9.92263 16.1716 10.382 15.5485C9.92263 16.5981 8.64219 17.123 7.59181 17.123C5.55691 17.123 4.76912 15.5159 4.76912 13.7115V5.93727H3.85044V5.64235Z" fill="#F6F7FF"/>
<path d="M10.6122 17.1229C11.4658 16.8604 11.6951 16.1057 11.6951 15.2534V8.49556C11.6951 8.03652 11.5967 7.08516 10.9398 7.08516L13.008 5.64225V15.2534C13.008 16.1065 13.2706 16.8604 14.1243 17.1229H10.6122ZM11.3341 2.88646C11.3341 2.32912 11.7276 1.96839 12.2861 1.96839C12.8446 1.96839 13.2048 2.32912 13.2048 2.88646C13.2048 3.4438 12.8438 3.80453 12.2861 3.80453C11.7284 3.80453 11.3341 3.4438 11.3341 2.88646Z" fill="#F6F7FF"/>
<path d="M15.5689 17.1228C16.4876 16.7945 16.7177 16.0406 16.7177 15.1217V8.69207C16.7177 8.16724 16.6193 7.18336 15.8974 7.18336L17.9981 5.64215L18.0306 15.1217C18.0306 16.0398 18.2932 16.7945 19.2119 17.1228H15.5681H15.5689ZM18.7526 7.41328C19.6713 6.3311 21.0176 5.57635 22.4289 5.57635C24.7597 5.57635 25.7109 7.47908 25.7109 9.57843V15.1217C25.7109 16.0398 25.9735 16.827 26.893 17.1228H23.2167C24.1362 16.8278 24.3988 16.0073 24.3988 15.1217V9.28271C24.3988 7.6757 23.7427 6.13369 21.9045 6.13369C20.7558 6.13369 19.6395 6.72433 18.7534 7.41328H18.7526ZM26.0068 7.41328C26.893 6.3311 28.2718 5.57635 29.6832 5.57635C31.9807 5.57635 32.9327 7.47908 32.9327 9.57843V15.1217C32.9327 16.0398 33.2278 16.827 34.1473 17.1228H30.4709C31.3896 16.8278 31.6197 16.0073 31.6197 15.1217V9.28271C31.6197 7.6757 30.9961 6.13369 29.158 6.13369C28.0092 6.13369 26.893 6.72433 26.0068 7.41328Z" fill="#F6F7FF"/>
<path d="M40.4812 5.60902C43.6649 5.60902 46.2583 8.2007 46.2583 11.3822C46.2583 14.5638 43.6982 17.1554 40.5137 17.1554C37.3293 17.1554 34.7041 14.5638 34.7041 11.3822C34.7041 8.2007 37.2975 5.60902 40.4812 5.60902ZM36.0496 10.9557C36.0496 13.6124 37.7894 16.8597 40.8089 16.8597C43.4673 16.8597 44.8136 14.203 44.8136 11.8413C44.8136 9.15127 43.1071 5.93724 40.0869 5.93724C37.4284 5.93724 36.0496 8.59393 36.0496 10.9557Z" fill="#F6F7FF"/>
<path d="M50.5901 15.122V3.08322C50.5901 2.52508 50.4917 1.54121 49.7698 1.54121L51.8705 0L51.9031 15.122C51.9031 16.04 52.1657 16.7948 53.0851 17.123H49.4413C50.3608 16.7948 50.5901 16.0408 50.5901 15.122Z" fill="#F6F7FF"/>
<path d="M59.6176 5.67471C62.4403 5.67471 63.8191 8.20059 63.8191 10.7265H55.2193C55.2193 13.4815 56.3681 16.3356 59.585 16.3356C60.9639 16.3356 63.1297 15.8765 63.8191 14.5311C63.1297 16.2698 61.1931 17.2861 59.3875 17.2861C56.2039 17.2861 53.8405 14.7936 53.8405 11.6445C53.8405 8.06899 55.9738 5.67471 59.6176 5.67471ZM55.2518 10.3982H61.1931C62.1777 10.3982 62.6703 9.6435 62.6703 8.75793C62.6703 6.8885 60.9964 5.87133 59.3225 5.87133C57.0575 5.87133 55.2518 8.2331 55.2518 10.3982Z" fill="#F6F7FF"/>
<path d="M83.2825 6.06789C82.6256 6.06789 81.937 6.2978 81.2801 6.72354C78.6541 8.65877 76.9802 13.8088 73.8291 16.039C72.9104 16.7279 71.86 17.1545 70.6121 17.1545C67.4284 17.1545 64.8025 14.5961 64.8025 11.3813C64.8025 8.16644 67.3959 5.60806 70.5796 5.60806C73.7632 5.60806 76.3566 8.19974 76.3566 11.3813C76.3566 11.7095 76.3241 12.0702 76.2908 12.3984C75.7331 13.2515 74.8136 14.3337 74.0258 15.0551C74.6168 14.1038 74.912 12.9558 74.912 11.8403C74.912 9.15031 73.2055 5.93628 70.1853 5.93628C67.5268 5.93628 66.148 8.59297 66.148 10.9547C66.148 13.5131 67.7561 16.5971 70.5137 16.8263C74.2226 16.9904 76.2249 13.2507 78.2606 10.0367V8.69207C78.2606 8.16724 78.1623 7.18336 77.4403 7.18336L79.5411 5.64215V8.20053C80.5589 6.85594 81.6744 5.87127 83.0857 5.67466C83.3808 5.60885 83.6767 5.57635 83.9719 5.57635C86.3027 5.57635 87.2539 7.47908 87.2539 9.57843V15.1217C87.2539 16.0398 87.5165 16.827 88.436 17.1228H84.7596C85.6783 16.8278 85.9417 16.0073 85.9417 15.1217V9.28271C85.9417 7.15086 84.7271 6.06789 83.2832 6.06789H83.2825ZM77.1119 17.122C78.0306 16.7938 78.2606 16.0398 78.2606 15.1209V11.2505L79.5411 9.34772L79.5736 15.1209C79.5736 16.039 79.8362 16.7938 80.7557 17.122H77.1119Z" fill="#F6F7FF"/>
<path d="M-5.34058e-05 31.8364C0.918629 31.5082 1.1487 30.7543 1.1487 29.8354V17.7974C1.1487 17.2393 1.05032 16.2554 0.328388 16.2554L2.42914 14.7134L2.46167 29.8354C2.46167 30.7535 2.72426 31.5082 3.64294 31.8364H-5.34058e-05ZM6.76155 22.2253C6.99161 21.9953 7.25421 21.4705 7.25421 21.1756C7.25421 20.7491 6.92577 20.4866 6.5648 20.3558H9.48586C8.89483 20.5857 8.43548 20.8482 7.97614 21.2414L4.0047 24.9152L9.02652 30.6552C9.55171 31.2458 10.1427 31.5732 10.8972 31.8364H8.33711L2.95433 25.6367L6.76155 22.2253Z" fill="#F6F7FF"/>
<path d="M12.21 29.9669V23.2098C12.21 22.7175 12.1442 21.8319 11.4547 21.8319L13.4897 20.3557V29.9669C13.4897 30.7542 13.7522 31.5414 14.5726 31.8364H11.093C11.9791 31.5739 12.2092 30.8192 12.2092 29.9669H12.21ZM14.475 21.9303C15.1311 21.2413 17.0684 20.6182 17.9871 20.6182C18.6765 20.6182 19.661 20.8806 19.661 21.7661C19.661 22.1927 19.3984 22.6842 18.9058 22.6842C17.8229 22.6842 18.2497 21.2413 16.6083 21.2413C15.9522 21.2413 15.0002 21.5362 14.475 21.9303ZM23.0747 23.7672C23.1406 23.6031 23.2715 23.3407 23.2715 23.1765C23.2715 21.2413 21.926 20.5849 20.1862 20.5849C20.5472 20.3882 21.0065 20.3224 21.4008 20.3224C23.6983 20.3224 24.6178 21.7328 24.6178 23.898V29.737C24.6178 30.426 24.8478 31.1799 25.6681 31.1799C25.9966 31.1799 26.325 31.0816 26.5876 30.885C26.3576 31.4756 25.6031 31.9672 24.9462 31.9672C23.5674 31.9672 23.3048 30.885 23.3048 29.737V23.898C22.1561 26.2598 18.1513 25.8332 18.1513 29.0481C18.1513 30.4585 19.1033 31.4098 20.5472 31.4098C21.4333 31.4098 22.3195 31.0158 23.0089 30.4918C22.2211 31.4756 21.0065 31.968 19.7919 31.968C18.118 31.968 16.5749 30.9508 16.5749 29.1797C16.5749 25.8007 21.6626 26.3589 23.0739 23.7672H23.0747Z" fill="#F6F7FF"/>
<path d="M28.72 20.3559V28.1952C28.72 29.8022 29.3761 31.3442 31.2143 31.3442C32.363 31.3442 33.4792 30.7536 34.3654 30.0646C33.4792 31.1468 32.1004 31.9015 30.7216 31.9015C28.3908 31.9015 27.4396 29.9663 27.4396 27.8995V23.1759C27.4396 22.6186 27.2754 22.0279 26.6193 21.9954L28.72 20.3551V20.3559ZM36.4995 20.3559V28.7858C36.4995 29.3106 36.6312 30.2945 37.3198 30.2945L35.219 31.8365V23.1767C35.219 22.6194 35.0548 22.0287 34.3987 21.9962L36.4995 20.3559Z" fill="#F6F7FF"/>
<path d="M42.7026 31.6067C44.0156 31.6067 46.1163 31.3118 46.1163 29.5732C46.1163 26.6541 38.7637 27.3097 38.7637 23.4393C38.7637 21.3074 40.6018 20.2244 42.5384 20.2244C43.4245 20.2244 45.5911 20.651 46.4114 21.0117V23.1768C45.8862 21.5365 44.1139 20.4218 42.44 20.4218C41.2579 20.4218 39.584 21.0775 39.584 22.4554C39.584 25.8343 46.9691 25.0138 46.9691 28.7534C46.9691 31.1152 44.9342 31.9683 42.8985 31.9683C41.553 31.9683 39.8791 31.64 38.5987 31.2468V28.5243C39.2548 30.2629 40.7653 31.6075 42.7018 31.6075L42.7026 31.6067Z" fill="#F6F7FF"/>
<path d="M54.3225 20.3885C57.1452 20.3885 58.524 22.9144 58.524 25.4403H49.9242C49.9242 28.1953 51.073 31.0493 54.2899 31.0493C55.6688 31.0493 57.8346 30.5903 58.524 29.2449C57.8346 30.9835 55.898 31.9999 54.0924 31.9999C50.9087 31.9999 48.5454 29.5073 48.5454 26.3583C48.5454 22.7828 50.6787 20.3885 54.3225 20.3885ZM49.9567 25.112H55.898C56.8826 25.112 57.3752 24.3573 57.3752 23.4717C57.3752 21.6023 55.7013 20.5851 54.0273 20.5851C51.7624 20.5851 49.9567 22.9469 49.9567 25.112Z" fill="#F6F7FF"/>
</svg>
