<svg width="50" height="50" viewBox="0 0 50 50" fill="none" xmlns="http://www.w3.org/2000/svg">
<g filter="url(#filter0_f_285_109)">
<path d="M25 16L26.0182 23.9818L34 25L26.0182 26.0182L25 34L23.9818 26.0182L16 25L23.9818 23.9818L25 16Z" fill="white"/>
</g>
<g filter="url(#filter1_f_285_109)">
<path d="M25 16L26.0182 23.9818L34 25L26.0182 26.0182L25 34L23.9818 26.0182L16 25L23.9818 23.9818L25 16Z" fill="white"/>
</g>
<g filter="url(#filter2_f_285_109)">
<path d="M25 16L26.0182 23.9818L34 25L26.0182 26.0182L25 34L23.9818 26.0182L16 25L23.9818 23.9818L25 16Z" fill="white"/>
</g>
<g filter="url(#filter3_f_285_109)">
<path d="M25 16L26.0182 23.9818L34 25L26.0182 26.0182L25 34L23.9818 26.0182L16 25L23.9818 23.9818L25 16Z" fill="white"/>
</g>
<g filter="url(#filter4_f_285_109)">
<path d="M25 16L26.0182 23.9818L34 25L26.0182 26.0182L25 34L23.9818 26.0182L16 25L23.9818 23.9818L25 16Z" fill="white"/>
</g>
<path d="M25 16L26.0182 23.9818L34 25L26.0182 26.0182L25 34L23.9818 26.0182L16 25L23.9818 23.9818L25 16Z" fill="white"/>
<defs>
<filter id="filter0_f_285_109" x="0" y="0" width="50" height="50" filterUnits="userSpaceOnUse" color-interpolation-filters="sRGB">
<feFlood flood-opacity="0" result="BackgroundImageFix"/>
<feBlend mode="normal" in="SourceGraphic" in2="BackgroundImageFix" result="shape"/>
<feGaussianBlur stdDeviation="8" result="effect1_foregroundBlur_285_109"/>
</filter>
<filter id="filter1_f_285_109" x="0" y="0" width="50" height="50" filterUnits="userSpaceOnUse" color-interpolation-filters="sRGB">
<feFlood flood-opacity="0" result="BackgroundImageFix"/>
<feBlend mode="normal" in="SourceGraphic" in2="BackgroundImageFix" result="shape"/>
<feGaussianBlur stdDeviation="8" result="effect1_foregroundBlur_285_109"/>
</filter>
<filter id="filter2_f_285_109" x="8" y="8" width="34" height="34" filterUnits="userSpaceOnUse" color-interpolation-filters="sRGB">
<feFlood flood-opacity="0" result="BackgroundImageFix"/>
<feBlend mode="normal" in="SourceGraphic" in2="BackgroundImageFix" result="shape"/>
<feGaussianBlur stdDeviation="4" result="effect1_foregroundBlur_285_109"/>
</filter>
<filter id="filter3_f_285_109" x="12" y="12" width="26" height="26" filterUnits="userSpaceOnUse" color-interpolation-filters="sRGB">
<feFlood flood-opacity="0" result="BackgroundImageFix"/>
<feBlend mode="normal" in="SourceGraphic" in2="BackgroundImageFix" result="shape"/>
<feGaussianBlur stdDeviation="2" result="effect1_foregroundBlur_285_109"/>
</filter>
<filter id="filter4_f_285_109" x="14" y="14" width="22" height="22" filterUnits="userSpaceOnUse" color-interpolation-filters="sRGB">
<feFlood flood-opacity="0" result="BackgroundImageFix"/>
<feBlend mode="normal" in="SourceGraphic" in2="BackgroundImageFix" result="shape"/>
<feGaussianBlur stdDeviation="1" result="effect1_foregroundBlur_285_109"/>
</filter>
</defs>
</svg>
